# xmcd
#
# Track frame offsets: 
#        150
#        15027
#        26780
#        43162
#        63415
#        78122
#        93607
#        108442
#        122425
#        138110
#        155852
#        170125
#
# Disc length: 2465 seconds
#
# Revision: 5
# Processed by: cddbd v1.5.2PL0 Copyright (c) Steve Scherf et al.
# Submitted via: ExactAudioCopy v1.0b3
#
DISCID=95099f0c
DTITLE=Cash, Rosanne - Hits 1979-1989
DYEAR=1989
DGENRE=Country
TTITLE0=Seven Year Ache
TTITLE1=I Don't Want To Spoil The Party
TTITLE2=Hold On
TTITLE3=Blue Moon With Heartache
TTITLE4=My Baby Thinks He's A Train
TTITLE5=No Memories Hangin' Around
TTITLE6=I Don't Know Why You Don't Want Me  
TTITLE7=I Wonder
TTITLE8=Never Be You
TTITLE9=The Way We Make A Broken Heart
TTITLE10=Tennessee Flat Top Box
TTITLE11=Black And White
EXTD=YEAR: 1989
EXTT0=
EXTT1=
EXTT2=
EXTT3=
EXTT4=
EXTT5=
EXTT6=
EXTT7=
EXTT8=
EXTT9=
EXTT10=
EXTT11=
PLAYORDER=
